<svg width="968" height="874" viewBox="0 0 968 874" fill="none" xmlns="http://www.w3.org/2000/svg">
<path d="M529.581 154.413C529.853 154.795 530 155.252 530 155.722C530 157.153 528.682 158.221 527.282 157.925L506.032 153.43C504.681 153.144 503.304 153 501.923 153H493.623C490.901 153 488.207 152.461 485.694 151.414L485.271 151.238C484.094 150.748 482.865 150.394 481.608 150.185C478.911 149.735 476.366 148.628 474.199 146.961L472.782 145.87C471.596 144.959 470.5 143.938 469.507 142.82L459 131L452.031 123.621C451.012 122.542 449.903 121.552 448.716 120.662L446.549 119.037C445.197 118.023 443.655 117.289 442.015 116.879L440.606 116.527C440.536 116.509 440.463 116.5 440.39 116.5C439.899 116.5 439.5 116.899 439.5 117.39V121.414C439.5 122.122 439.29 122.814 438.898 123.403L438.79 123.565C438.599 123.852 438.352 124.099 438.065 124.29L437.749 124.501C437.276 124.816 436.685 124.895 436.146 124.715C435.729 124.576 435.376 124.293 435.15 123.916L434 122L429 113L417.5 91C417 89.8333 416 87.4 416 87C416 86.7641 415.768 85.5891 415.51 84.357C415.18 82.7896 414.638 81.2756 413.922 79.8432C412.98 77.96 411.741 76.241 410.252 74.7523L409.206 73.7063C408.072 72.5722 406.817 71.5656 405.464 70.7045L404.171 69.8818C402.736 68.9685 401.144 68.3289 399.476 67.9953L398.52 67.8039C397.515 67.603 396.482 67.5863 395.471 67.7548C394.498 67.917 393.56 68.2484 392.701 68.734L382.5 74.5C376.855 77.8206 371.641 81.8254 366.978 86.4235L347.402 105.723C341.486 111.556 336.249 118.038 331.788 125.047L325.232 135.349C324.746 136.113 324.355 136.935 324.069 137.794L323.85 138.45C323.618 139.145 323.5 139.874 323.5 140.607C323.5 142.156 324.027 143.659 324.995 144.869L325.019 144.899C325.339 145.298 325.702 145.661 326.101 145.981C327.33 146.964 328.857 147.5 330.431 147.5H333L355 145.5L362.5 145H373L381.5 145.5C385.148 145.832 388.824 145.635 392.415 144.917L397.169 143.966C400.382 143.324 403.65 143 406.926 143H411.174C413.708 143 416.226 142.591 418.63 141.79C420.206 141.265 421.831 140.881 423.49 140.806C424.767 140.749 426.037 140.768 426.5 141C426.718 141.109 427.065 141.245 427.478 141.393C429.572 142.14 431.881 141.325 433.215 139.546C433.731 138.859 434.074 138.057 434.215 137.21L434.474 135.653C434.491 135.551 434.516 135.451 434.549 135.353L434.63 135.11C434.851 134.447 435.471 134 436.17 134C436.691 134 437.181 134.25 437.486 134.673L443.5 143L447.5 149L450.083 153.254C453.995 159.697 459.05 165.372 465 170L474 176.5L479.5 180.5L479.749 180.687C482.231 182.548 485.016 183.967 487.982 184.879C489.325 185.292 490.699 185.6 492.09 185.799L497 186.5C499.333 186.833 504.1 187.5 504.5 187.5C504.689 187.5 505.634 187.799 506.771 188.185C509.258 189.029 511.604 190.236 513.79 191.693C515.592 192.895 517.272 194.272 518.803 195.803L519.25 196.25C521.079 198.079 522.723 200.084 524.157 202.236L526 205L531.5 213.5L535 221L537.419 226.241C537.805 227.077 538.091 227.956 538.272 228.86L538.326 229.131C538.442 229.709 538.5 230.297 538.5 230.887V232.971C538.5 232.99 538.496 233.009 538.487 233.026C538.421 233.157 538.599 233.273 538.692 233.159L544.788 225.758C544.927 225.589 545.017 225.386 545.05 225.169L545.593 221.549C546.173 217.683 546.943 213.428 546.905 209.518C546.902 209.195 546.926 209 547 209H547.5L550 215.5C551.661 221.48 552.634 227.631 552.9 233.832L553 236.17L553.5 244.17L555.205 254.68C555.401 255.891 555.5 257.117 555.5 258.344C555.5 260.109 555.704 261.868 556.108 263.585L556.594 265.648C557.197 268.21 558.044 270.708 559.124 273.108L559.545 274.043C561.176 277.669 563.22 281.095 565.635 284.253L568.5 288C570.5 291 574.6 297.1 575 297.5L579 301.5L579.045 301.534C580.314 302.485 581.858 303 583.444 303C584.47 303 585.484 302.785 586.422 302.368L587.4 301.933C588.788 301.316 590.051 300.449 591.125 299.375L591.753 298.747C592.912 297.588 594.23 296.602 595.669 295.817L599 294C601.321 293.005 603.774 292.345 606.287 292.1C606.897 292.04 607.361 292 607.5 292C610.552 292 613.298 293.865 615.837 295.558L616.5 296L620.5 299C623.491 300.662 626.653 301.996 629.931 302.979L630 303C632.322 303.663 634.725 304 637.14 304H649.924C654.301 304 658.673 304.334 663 305L675 308L684 310.5L693 313L703 316.5C705.32 317.163 707.727 317.471 710.139 317.413L716.207 317.269C723.678 317.091 731.048 315.569 738.035 312.92C740.219 312.092 741.839 311.5 742 311.5C742.5 311.5 749 308 749.5 308C755.162 308 758.544 301.177 763.568 298.565L768.5 296L779 291.5L790 288L795.617 286.018C797.531 285.342 799.524 284.915 801.547 284.746L801.751 284.729C803.577 284.577 805.414 284.652 807.221 284.954L809.929 285.405C810.307 285.468 810.675 285.587 811.018 285.759C812.5 286.5 813.342 288.107 813.108 289.747L812 297.5L811 305L809.5 310.5C806.841 317.812 803.393 324.811 799.216 331.375L798.5 332.5L792 343.5L787.5 351.5L784 360L781.5 369C780.179 377.584 780.005 386.372 781 395L783 413.5L784 425L786.5 444.5L788.5 468C788.5 472.978 787.844 477.935 786.55 482.742L785 488.5L776.376 509.872C774.477 514.58 773.5 519.61 773.5 524.686C773.5 526.56 773.367 528.431 773.102 530.285L772.898 531.716C772.302 535.885 771.132 539.952 769.422 543.8L768.762 545.285C768.255 546.427 767.661 547.528 766.985 548.579C764.701 552.132 761.535 555.034 757.797 557.001L754 559L740 564L737.683 564.632C731.92 566.204 725.973 567 720 567L710 566L701 564.5L692.5 562L688.467 560.387C686.168 559.467 684.018 558.214 682.084 556.667L680.936 555.749C680.314 555.251 679.641 554.82 678.928 554.464C677.015 553.508 674.871 553.113 672.743 553.326L672.391 553.361C671.466 553.453 670.555 553.648 669.674 553.942L669.218 554.094C666.453 555.016 663.975 556.639 662.026 558.805C661.013 559.93 660.157 561.186 659.48 562.54L657.841 565.817C656.95 567.599 656.274 569.481 655.826 571.423C655.278 573.795 655.077 576.234 655.229 578.664L655.242 578.869C655.413 581.607 656.006 584.301 657 586.857L657.186 587.336C658.387 590.424 660.092 593.291 662.232 595.82L664.5 598.5L680.5 619.5L684.167 625C684.387 625.331 684.549 625.697 684.646 626.083C684.872 626.989 685.455 627.765 686.262 628.236L697 634.5L702 638L710 643L712.182 644.527C714.05 645.835 715.712 647.415 717.112 649.215L718.314 650.761C718.438 650.92 718.545 651.091 718.635 651.27C719.389 652.778 718.778 654.611 717.27 655.365L717 655.5L714.031 657.356C713.357 657.777 712.812 658.376 712.456 659.088L712.412 659.177C712.141 659.718 712 660.315 712 660.92C712 661.627 712.192 662.32 712.556 662.926L713.18 663.966C713.393 664.322 713.631 664.658 713.894 664.978C717.171 668.95 723.116 676.232 723.5 677C723.816 677.632 728.518 682.463 732.287 686.272C734.086 688.091 736.089 689.693 738.246 691.066C739.747 692.021 741.172 693.088 742.51 694.259L742.997 694.685C746.64 697.872 749.659 701.688 752.203 705.806C752.597 706.443 752.889 706.889 753 707C753.4 707.4 759.833 712.833 763 715.5L781.5 732L786 736L786.479 736.479C788.47 738.47 790.864 740.011 793.5 741L800 743L804 744L804.342 744.098C806.417 744.691 808.604 744.779 810.721 744.356L812.313 744.037C812.437 744.013 812.557 743.971 812.671 743.915C813.558 743.471 814.616 744.047 814.726 745.033L814.915 746.732C814.97 747.233 814.88 747.74 814.654 748.192L813.896 749.708C813.633 750.234 813.315 750.732 812.947 751.192L810.871 753.787C809.976 754.905 808.777 755.741 807.418 756.194L805.728 756.757C805.256 756.915 804.85 757.225 804.574 757.639C804.21 758.185 804.104 758.864 804.284 759.495L804.528 760.346C804.83 761.405 805.541 762.3 806.503 762.835L809.5 764.5L821 770L832.5 775.5L842.87 779.389C843.955 779.796 845.007 780.285 846.017 780.853L847.523 781.701C850.756 783.519 853.321 786.325 854.843 789.707C856.25 792.832 856.699 796.304 856.136 799.684L855.745 802.03C855.582 803.008 855.325 803.967 854.977 804.895C853.405 809.087 850.08 812.384 845.874 813.919L832.942 818.64C825.132 821.492 816.687 822.137 808.534 820.507L801 819L775 812L755.5 805L746.839 800.463C745.616 799.823 744.457 799.066 743.379 798.203C741.149 796.419 739.296 794.209 737.928 791.701L737 790C735.045 784.787 731.568 780.283 727.02 777.073L725.5 776L715 769.5L701 758L688 746.5L675.5 735L660.5 721.5L650.5 711L639.5 700L629.5 688.5L619.5 679L617.804 677.474C615.625 675.512 613.064 674.021 610.283 673.094L609.24 672.747C607.756 672.252 606.203 672 604.639 672H604.163C602.733 672 601.314 672.257 599.974 672.76C598.668 673.249 597.458 673.964 596.399 674.872L596.034 675.185C595.016 676.057 594.123 677.066 593.379 678.181L592.282 679.827C591.762 680.608 591.309 681.431 590.928 682.288C589.986 684.406 589.5 686.697 589.5 689.015V697C589.5 702.65 590.118 708.282 591.344 713.798L591.5 714.5L593.112 719.604C594.028 722.505 595.52 725.19 597.5 727.5C599.157 729.82 601.152 731.881 603.417 733.613L605.869 735.488C607.614 736.823 609.541 737.9 611.591 738.689C613.85 739.558 616.231 740.065 618.647 740.192L619.959 740.261C622.97 740.419 625.943 741.015 628.783 742.03C630.59 742.675 632.334 743.487 633.992 744.454L637.5 746.5L643 749.5L646.596 751.461C647.851 752.146 648.944 753.092 649.801 754.235C650.912 755.716 651.589 757.476 651.756 759.32L652 762C652.167 764.833 652.5 770.8 652.5 772C652.5 773.003 651.802 776.635 651.281 779.164C651.098 780.05 650.771 780.9 650.322 781.686C649.46 783.195 648.171 784.415 646.617 785.192L639.758 788.621C637.262 789.869 634.623 790.81 631.896 791.401C629.301 791.963 626.754 792.5 626.5 792.5C626.1 792.5 617.667 793.167 613.5 793.5L598 793L590.249 792.446C586.131 792.152 582.124 790.977 578.5 789L566.5 783.5L559.5 779.5L551.5 774L548.565 771.517C546.192 769.509 543.977 767.32 541.941 764.971C539.651 762.329 537.595 759.492 535.797 756.494L534 753.5L531 747L528.5 739.5L527.948 737.294C527.652 736.11 527.123 734.997 526.39 734.021C526.13 733.674 525.846 733.346 525.54 733.04L525.451 732.951C524.819 732.319 524.113 731.768 523.347 731.308L522 730.5L521.069 730.034C521.023 730.012 520.976 729.992 520.927 729.976C520.225 729.742 519.5 730.264 519.5 731.004V731.259C519.5 731.416 519.546 731.57 519.633 731.7C520.098 732.398 519.306 733.246 518.578 732.831L518.151 732.586C518.051 732.529 517.963 732.454 517.892 732.364L516.832 731.04C516.28 730.35 515.824 729.588 515.476 728.776L514.114 725.598C513.372 723.869 512.771 722.083 512.314 720.258L511.5 717L509.484 711.759C509.162 710.921 508.776 710.108 508.331 709.329C507.449 707.785 506.804 706.117 506.418 704.382L506 702.5L504.558 695.77C504.519 695.591 504.5 695.407 504.5 695.223V693.133C504.5 692.153 503.469 691.516 502.592 691.954C502.531 691.985 502.472 692.02 502.416 692.06L499 694.5L498.549 694.801C497.851 695.266 497.201 695.799 496.608 696.392L496.356 696.644C495.788 697.212 495.151 697.709 494.461 698.123L493.272 698.837C493.092 698.945 492.895 699.021 492.689 699.062L492.39 699.122C491.412 699.318 490.5 698.57 490.5 697.572C490.5 697.202 490.63 696.844 490.866 696.56L492.186 694.977C492.725 694.33 493.147 693.596 493.434 692.805L495 688.5L497.5 680.5L498.5 674.5L498.761 672.541C499.251 668.87 499.163 665.144 498.5 661.5L495.5 651.5L493 645.5L488 632L482.856 621.712C481.953 619.906 480.923 618.167 479.774 616.507C477.931 613.844 475.79 611.4 473.394 609.222L471.5 607.5C469.518 605.187 467.118 603.268 464.426 601.843L460 599.5L459.303 599.12C456.568 597.628 453.149 598.43 451.362 600.982C451.121 601.327 450.917 601.695 450.751 602.081L449.567 604.843C449.523 604.947 449.464 605.045 449.394 605.133C448.695 606.007 447.289 605.599 447.165 604.487L446.56 599.043C446.52 598.683 446.425 598.332 446.278 598.001L444.5 594L444.171 592.847C443.728 591.3 442.968 589.861 441.937 588.625C441.315 587.878 440.601 587.213 439.812 586.645L428.5 578.5L426.179 577.234C424.747 576.453 423 577.49 423 579.121C423 579.372 423.044 579.62 423.129 579.856L425 585L425.724 586.809C425.901 587.253 425.901 587.747 425.724 588.191C425.329 589.176 424.192 589.633 423.226 589.194L420.414 587.915C419.811 587.641 419.271 587.246 418.829 586.754L415 582.5L410 577.5L407.834 574.715C406.952 573.581 406.283 572.296 405.861 570.923C404.986 568.079 403.073 565.668 400.503 564.168L394.483 560.657C393.163 559.887 391.904 559.016 390.718 558.052L384.5 553L383.571 552.226C382.221 551.101 380.566 550.407 378.817 550.232C377.299 550.08 375.767 550.326 374.372 550.946L373.473 551.345C372.495 551.78 371.577 552.339 370.741 553.007L367 556L362.5 559C361.667 559.5 359.9 560.5 359.5 560.5C359.1 560.5 356.667 565.833 355.5 568.5L347.059 585.805C346.021 587.932 345.15 590.136 344.455 592.398C343.819 594.463 343.331 596.571 342.994 598.706L342 605L341 616V624V643.5L345.5 676.5C345.5 681.817 346.088 687.118 347.252 692.306L350.385 706.26C350.794 708.081 350.331 710.665 352 711.5C352.16 711.58 352.521 711.807 353.02 712.135C358.743 715.903 364.685 719.341 371 722L372.768 723.04C377.249 725.676 381.823 728.323 385.5 732C385.674 732.174 386.611 732.733 387.793 733.405C390.867 735.152 393.569 737.496 395.624 740.374L395.79 740.607C396.925 742.194 397.833 743.932 398.489 745.77L398.738 746.466C399.57 748.796 399.902 751.275 399.712 753.742C399.572 755.569 399.147 757.364 398.453 759.06L397.06 762.465C395.717 765.747 393.424 768.551 390.474 770.517C387.557 772.462 384.129 773.5 380.623 773.5H376.5L361.5 771.5L349.555 769.794C348.187 769.598 346.806 769.5 345.424 769.5H343.685C341.249 769.5 338.834 769.948 336.561 770.823C334.534 771.602 332.649 772.709 330.981 774.099L329.969 774.943C328.328 776.31 326.535 777.482 324.626 778.437C321.244 780.128 317.553 781.108 313.778 781.318L283.5 783L261.944 781.68C259.984 781.56 258.035 781.297 256.114 780.892L254.843 780.625C251.306 779.88 247.917 778.55 244.818 776.691C242.944 775.566 241.188 774.256 239.578 772.78L239.092 772.334C237.037 770.45 235.189 768.351 233.581 766.073L230 761L229.688 760.479C226.918 755.863 224.992 750.791 224 745.5C223.5 743.167 222.5 738.3 222.5 737.5C222.5 736.7 223.167 728.5 223.5 724.5C223.648 723.466 222.359 722.875 221.672 723.661L220.628 724.853C220.543 724.951 220.471 725.059 220.413 725.174L218.5 729C218.136 729.972 216.707 729.779 216.613 728.746L216.5 727.5L215.595 722.976C215.533 722.663 215.546 722.34 215.633 722.033L216.715 718.246C216.946 717.438 215.983 716.828 215.351 717.38C214.747 717.909 213.816 717.373 213.969 716.586L216.837 701.836C216.945 701.282 216.975 700.716 216.922 700.153C216.558 696.285 215.871 689.742 215.5 689C215.11 688.22 212.471 678.189 211.103 672.899C211.034 672.632 210.991 672.362 210.972 672.086L210.768 669.022C210.644 667.163 208.617 666.076 207 667L199.5 671L195.418 673.721C195.145 673.903 194.931 674.16 194.802 674.462L194.603 674.926C194.143 676 192.66 676.1 192.059 675.098C192.02 675.033 191.986 674.965 191.958 674.894C191.614 674.025 191 672.384 191 672C191 668.747 192.753 665.747 195.053 663.447L197.5 661L204 652.5L205.987 648.968C207.648 646.015 208.746 642.779 209.225 639.425C209.408 638.143 209.5 636.85 209.5 635.556V634.023C209.5 630.023 209.009 626.038 208.039 622.157L208 622L207.361 620.212C206.131 616.766 204.279 613.576 201.898 610.798L201.423 610.244C200.146 608.754 199.056 607.112 198.178 605.357C197.395 603.79 196.783 602.144 196.372 600.441C195.527 596.939 194.5 592.442 194.5 591.5V582.5C191.174 583.831 187.715 584.786 184.24 585.656C183.725 585.784 183.291 585.903 183 586C182.354 586.215 181.485 586.247 180.69 586.205C179.564 586.144 178.506 585.703 177.539 585.123L176.762 584.657C176.588 584.553 176.428 584.428 176.284 584.284L176.11 584.11C176.037 584.037 175.976 583.953 175.93 583.86L175.905 583.809C175.681 583.362 175.862 582.819 176.309 582.596C176.435 582.533 176.573 582.5 176.714 582.5H177.305C178.078 582.5 178.829 582.237 179.434 581.753L180.196 581.143C180.728 580.717 181.187 580.207 181.553 579.632L184.5 575L188.981 566.853C189.657 565.623 190.172 564.31 190.513 562.948C190.836 561.654 191 560.326 191 558.992V555L191.338 551.624C191.445 550.547 191.704 549.49 192.106 548.484C192.368 547.83 192.57 547.152 192.708 546.46L195 535L196.5 527L197 520.5C198.5 512.5 201.5 496.3 201.5 495.5C201.5 494.7 204.167 481.167 205.5 474.5C206.167 470.833 207.5 463.4 207.5 463C207.5 462.6 206.167 455.5 205.5 452L204 442L201 428.5L199 415.5L197.253 408.762C196.087 404.263 194.526 399.875 192.59 395.65C190.866 391.889 189.44 387.999 188.324 384.015L186.5 377.5C184.505 370.518 183.23 363.351 182.693 356.11L182.5 353.5V341L183.5 333L184 325.5L186.5 300.5L188.5 278.5L188.569 275.886C188.855 264.997 192.5 254.393 192.5 243.5C192.5 241.5 197.5 222.333 200 213C203.5 198.667 210.5 169.8 210.5 169C210.5 168 216 154 216 153C216 152.2 220 144.333 222 140.5L228.5 130L231.953 124.422C233.976 121.155 235.559 117.636 236.663 113.955C237.552 110.993 238.124 107.946 238.371 104.863L238.575 102.311C238.858 98.7757 238.854 95.2233 238.605 91.6856C238.543 90.8005 238.5 90.1429 238.5 90C238.5 89.6 237.5 84.1667 237 81.5L235.5 74.5L233.5 68.5L232 60.5L231 56L230.845 55.2253C230.618 54.0915 230.666 52.92 230.983 51.8082L231.339 50.5646C231.444 50.1943 231.643 49.8571 231.915 49.5848C232.57 48.9296 233.558 48.7393 234.41 49.1043L238.322 50.781C239.428 51.255 240.422 51.957 241.238 52.8411L246 58L246.761 59.0143C250.242 63.6559 253.174 68.6845 255.5 74C257.235 78.2417 263.174 78.4242 265.167 74.2971L266.694 71.1346C266.897 70.7126 267.057 70.2729 267.171 69.8186C268.222 65.6484 270.122 58.3784 270.5 58C270.623 57.8775 270.936 56.8758 271.345 55.4063C273.625 47.2219 272.504 32 281 32C281.377 32 289.203 25.1745 293.726 21.1838C294.234 20.7353 294.85 20.43 295.515 20.297C298.405 19.7191 300.841 22.4784 299.909 25.2741L299 28L295.668 40.8517C295.557 41.2788 295.541 41.7248 295.62 42.1589C296.024 44.3831 298.628 45.4041 300.436 44.0477L304.5 41L324 23L332.129 17.1938C338.351 12.7492 345.112 9.11088 352.249 6.36582C358.067 4.12793 364.101 2.4934 370.257 1.50874C375.201 0.718028 379.76 0 380 0C391.645 0 403.22 1.78411 414.582 4.33474L422 6L424.683 6.92512C432.513 9.62517 439.874 13.5304 446.5 18.5L460 30L472.5 39.5C479.09 44.1133 485.455 51.5 493.5 51.5C493.9 51.5 501.667 53.8333 505.5 55C508.716 55.9189 509.841 59.901 507.581 62.3666L507.272 62.7035C507.091 62.9008 506.894 63.0826 506.683 63.2469L503.856 65.4451C502.954 66.1466 501.985 66.7574 500.963 67.2685C499.331 68.0844 497.581 68.6379 495.777 68.9085L488.5 70L480.868 70.3816C479.298 70.4601 477.725 70.3062 476.2 69.9249L474.571 69.5177C474.524 69.5059 474.478 69.4891 474.435 69.4675C473.85 69.1751 473.24 69.8158 473.561 70.3855L477 76.5L481.336 83.5949C482.105 84.8541 482.635 86.2447 482.899 87.6966C483.292 89.8572 484.272 91.8681 485.731 93.5095L487.5 95.5C489.493 98.4897 491.83 101.235 494.463 103.68L497.5 106.5L508 114.5L515.5 119.5L519.898 121.943C519.966 121.981 520.028 122.028 520.083 122.083C520.512 122.512 520.354 123.242 519.785 123.455L517.576 124.284C517.198 124.426 516.79 124.468 516.392 124.406L511.92 123.718C510.974 123.573 510.041 123.359 509.127 123.078L504.071 121.522C504.024 121.507 503.978 121.489 503.934 121.467C503.22 121.11 502.431 121.794 502.684 122.551L503.313 124.44C503.434 124.803 503.673 125.115 503.991 125.327L507.731 127.821C508.904 128.603 509.96 129.548 510.866 130.629L522.5 144.5L529.581 154.413Z" fill="black"/>
<path d="M696.5 476.5V482L698 484.5L701.5 488L704.5 490.5L707.5 492L709.5 492.5L708 489.5L707.5 486L708 482.5L708.5 480.5V480L696.5 476.5Z" fill="white" stroke="white"/>
<path d="M712.5 482V486.5C712.5 486.9 713.167 489.333 713.5 490.5L715 492.5L716.5 494L718 494.5L721.5 493.5L724.5 491L727 487.5L727.5 487L726 486.5L725 489L723.5 490.5L721.5 491.5L720.5 491L720 489.5L719.5 487.5V484.5L717.5 483.5L714.5 482.5L713 482H712.5Z" fill="white"/>
<path d="M773 482.5L776 481V485V487.5L776.5 488.5L778 489L780 483.5L780.5 482V480.5V479L782 478.5L782.5 480V482L782 484.5L780.5 487L779 489L776 490L775 489.5L774.5 488.5L774 487L773.5 485L773 484V482.5Z" fill="white"/>
<path d="M768.5 485.5L767 487L770 490L768.5 485.5Z" fill="white"/>
<path d="M712.5 482C712.5 483.333 712.5 486.1 712.5 486.5M712.5 482H713L714.5 482.5L717.5 483.5L719.5 484.5V487.5L720 489.5L720.5 491L721.5 491.5L723.5 490.5L725 489L726 486.5L727.5 487L727 487.5L724.5 491L721.5 493.5L718 494.5L716.5 494L715 492.5L713.5 490.5C713.167 489.333 712.5 486.9 712.5 486.5M712.5 482V486.5M773 482.5L776 481V485V487.5L776.5 488.5L778 489L780 483.5L780.5 482V480.5V479L782 478.5L782.5 480V482L782 484.5L780.5 487L779 489L776 490L775 489.5L774.5 488.5L774 487L773.5 485L773 484V482.5ZM768.5 485.5L767 487L770 490L768.5 485.5Z" stroke="white"/>
<path d="M168.684 678.904C170.642 678.37 172 676.592 172 674.562C172 673.864 171.837 673.175 171.525 672.55L170.737 670.973C169.608 668.716 167.794 666.873 165.555 665.708L159.889 662.762C157.638 661.592 155.254 660.696 152.789 660.095L145.144 658.23C139.062 656.747 132.851 655.857 126.598 655.573L124.647 655.484C117.564 655.162 110.466 655.485 103.441 656.449L96.1566 657.449C91.061 658.148 86.0326 659.271 81.1234 660.805C75.3881 662.597 69.8408 664.944 64.5598 667.81L62.2835 669.046C57.4366 671.677 52.8222 674.716 48.4902 678.129C41.8583 683.354 35.9348 689.42 30.8689 696.175L28 700L19.5 715L13 728.5L8.88212 738.383C6.63103 743.786 4.81888 749.361 3.46324 755.054C1.49451 763.323 0.5 771.794 0.5 780.294V786.018C0.5 789.002 0.719552 791.982 1.15688 794.934C2.04727 800.944 3.83289 806.787 6.4543 812.268L8 815.5L11.8364 821.734C14.6056 826.234 17.8046 830.455 21.3884 834.337C25.7806 839.096 30.7226 843.315 36.1105 846.907L37.6094 847.906C43.1881 851.625 49.1329 854.768 55.3775 857.209C61.0352 859.42 66.5004 861.5 67 861.5C67.1145 861.5 67.5858 861.603 68.3358 861.786C86.1836 866.141 104.204 869.837 122.5 871.5L151.5 873H198.5L241.5 870.5L301.5 863.5L359 854L430.5 841.5L472.5 835L506.5 833H530C552.956 834.331 575.749 837.678 598.118 843.004L606.5 845L665.5 860.5L705.5 867.5C726.804 869.164 748.199 869.195 769.525 867.84C772.797 867.632 775.05 867.5 775.5 867.5C777.1 867.5 797.5 861.5 807.5 858.5L827.638 849.73C834.858 846.586 841.716 842.668 848.092 838.046L855.251 832.856C857.409 831.291 859.377 829.477 861.112 827.453L862.874 825.397C863.952 824.14 864.832 822.725 865.484 821.203C866.797 818.141 868.89 815.226 872.057 814.192C872.427 814.072 872.751 814 873 814C873.164 814 873.453 814.006 873.841 814.017C881.925 814.249 890.022 813.83 898 812.5L916.475 808.435C920.817 807.48 925.07 806.157 929.187 804.479L931.549 803.517C934.841 802.176 937.99 800.506 940.948 798.534C945.946 795.202 950.341 791.045 953.945 786.239L954.396 785.638C956.461 782.885 958.274 779.951 959.813 776.873L960.288 775.923C962.752 770.995 964.565 765.768 965.682 760.373C966.558 756.135 967 751.819 967 747.492V732.5L965 709.5L961 692L955.5 676.5L952.509 669.974C950.848 666.351 949.5 662.485 949.5 658.5C949.5 658.1 952.5 648.333 954 643.5L960.5 623L961.866 617.306C962.953 612.781 963.573 608.156 963.719 603.504L963.91 597.394C963.97 595.473 963.777 593.552 963.337 591.682C962.461 587.959 960.627 584.529 958.018 581.733L955 578.5L951.046 574.15C950.351 573.386 949.747 572.544 949.245 571.641C948.102 569.583 946.437 567.862 944.419 566.651L944.29 566.574C941.516 564.91 939.449 562.316 938.199 559.332C937.541 557.763 936.892 556.392 936.5 556C935.836 555.336 934.438 550.956 933.505 547.769C933.161 546.593 932.924 545.389 932.772 544.173L932.389 541.113C932.134 539.069 931.382 537.118 930.201 535.43C929.082 533.832 927.609 532.514 925.896 531.58L923 530L916.5 527.5L916.005 527.23C912.704 525.429 909.809 522.968 907.5 520L903.015 513.477C902.347 512.505 901.464 511.702 900.434 511.13L899.299 510.499C898.153 509.863 896.792 509.736 895.548 510.151C894.859 510.38 894.233 510.767 893.719 511.281L893.278 511.722C892.765 512.235 892.153 512.639 891.479 512.908L891.421 512.931C890.494 513.302 889.478 513.396 888.499 513.2L888.294 513.159C887.77 513.054 887.271 512.847 886.826 512.551C886.283 512.189 885.834 511.704 885.522 511.131C884.654 509.536 883.5 507.333 883.5 507C883.5 506.6 882.5 501.833 882 499.5L881 493.5L880 486L879.5 482V476V473L878.5 485.5V488.5V495V499L876.5 495C875.176 492.022 874.372 488.839 874.122 485.59L874 484V479.5V477.5L873.568 492.204C873.523 493.727 873.687 495.25 874.057 496.728C874.352 497.906 874.774 499.048 875.317 500.133L877.5 504.5L878.445 506.627C878.941 507.743 878.124 509 876.903 509C876.339 509 875.812 509.282 875.499 509.751L875.27 510.095C875.092 510.362 874.968 510.662 874.905 510.977L874.74 511.798C874.581 512.593 874.568 513.41 874.702 514.209L875.347 518.082C875.443 518.659 875.81 519.155 876.333 519.416C877.031 519.766 877.431 520.52 877.328 521.294L876.822 525.087C876.613 526.652 875.895 528.105 874.779 529.221L873.522 530.478C871.874 532.126 870.722 534.204 870.198 536.476L870.114 536.841C869.708 538.597 869.652 540.415 869.949 542.192L870.5 545.5L873 555L874.082 558.895C874.951 562.023 873.975 565.373 871.562 567.544C870.859 568.177 870.266 568.922 869.806 569.749L869.396 570.486C868.476 572.144 867.911 573.975 867.74 575.864L867 584V598.047C867 602.005 867.407 605.953 868.214 609.828C869.069 613.93 870.368 617.928 872.087 621.75L874 626L876.483 630.289C878.482 633.741 881.019 636.85 884 639.5L889 644.5C892.641 649.134 895.484 654.343 897.412 659.913L899 664.5L910 688.5L914.604 697.133C916.86 701.362 918.588 705.851 919.75 710.5C920.912 715.149 921.5 719.923 921.5 724.715V730L920.716 740.187C920.573 742.057 920.224 743.905 919.678 745.699L919.414 746.568C917.853 751.697 914.562 756.125 910.101 759.099C907.721 760.686 905.068 761.818 902.275 762.439L893 764.5L881 766L866.812 767.621C864.61 767.873 862.44 768.353 860.337 769.054L858.768 769.577C855.949 770.517 853.334 771.986 851.066 773.906C849.037 775.623 847.316 777.673 845.977 779.969L844.5 782.5C834.842 803.023 813.634 815.571 790.997 814.156L764.5 812.5L753.5 811L744.5 808.5L735.5 806C732.204 805.011 728.736 804.73 725.324 805.175L722.572 805.534C720.196 805.844 717.855 806.382 715.582 807.139L711.612 808.463C710.54 808.82 709.508 809.287 708.532 809.856C705.584 811.576 702.174 812.334 698.775 812.025L687.5 811L674 808.5L651.5 804L629 799.5L565.5 785.5L549.5 783.5L537 782.5L527.452 782.202C501.874 781.402 476.277 783.009 451 787L417.5 792L305 809L241.5 816L186.5 819H146.5L105.5 816L89.747 812.718C84.2561 811.574 78.8543 810.038 73.5831 808.121L70.5226 807.008C66.8464 805.671 63.2797 804.051 59.8548 802.161L55.2668 799.63C52.1047 797.885 49.2041 795.704 46.6504 793.15L45.7085 792.209C43.5818 790.082 41.7901 787.645 40.3945 784.98C38.1648 780.724 37 775.99 37 771.184V768.801C37 766.936 37.1324 765.073 37.3962 763.227L37.7899 760.47C38.5943 754.84 40.0074 749.314 42.0044 743.988L43.5 740C47.1133 730.802 52.2064 722.119 58.5 714.5C63.8164 707.522 69.8272 701.071 76.7248 695.651C77.996 694.653 78.8749 694 79 694C79.2211 694 82.4053 692.167 86.0539 690.021C91.6783 686.712 97.6553 684.036 103.896 682.129C109.614 680.382 115.51 679.28 121.473 678.843L133 678H150L165.415 679.401C166.133 679.467 166.856 679.403 167.551 679.213L168.684 678.904Z" fill="black"/>
<path d="M878.5 488.5V485.5L879.5 473V476V482L880 486L881 493.5L882 499.5C882.5 501.833 883.5 506.6 883.5 507C883.5 507.333 884.655 509.536 885.522 511.131C885.834 511.704 886.283 512.189 886.826 512.551C887.271 512.847 887.77 513.054 888.294 513.159L888.499 513.2C889.478 513.396 890.494 513.302 891.421 512.931L891.479 512.908C892.153 512.639 892.765 512.235 893.278 511.722L893.719 511.281C894.233 510.767 894.859 510.38 895.548 510.151C896.792 509.736 898.153 509.863 899.299 510.499L900.434 511.13C901.464 511.702 902.347 512.505 903.015 513.477L907.5 520C909.809 522.968 912.704 525.429 916.005 527.23L916.5 527.5L923 530L925.896 531.58C927.609 532.514 929.082 533.832 930.201 535.43C931.382 537.118 932.134 539.069 932.389 541.113L932.772 544.173C932.924 545.389 933.161 546.593 933.505 547.769C934.438 550.956 935.836 555.336 936.5 556C936.892 556.392 937.541 557.763 938.199 559.332C939.449 562.316 941.516 564.91 944.29 566.574L944.419 566.651C946.437 567.862 948.102 569.583 949.245 571.641C949.747 572.544 950.351 573.386 951.046 574.15L955 578.5L958.018 581.733C960.627 584.529 962.461 587.959 963.337 591.682C963.777 593.552 963.97 595.473 963.91 597.394L963.719 603.504C963.573 608.156 962.953 612.781 961.866 617.306L960.5 623L954 643.5C952.5 648.333 949.5 658.1 949.5 658.5C949.5 662.485 950.848 666.351 952.509 669.974L955.5 676.5L961 692L965 709.5L967 732.5V747.492C967 751.819 966.558 756.135 965.682 760.373C964.565 765.768 962.752 770.995 960.288 775.923L959.813 776.873C958.274 779.951 956.461 782.885 954.396 785.638L953.946 786.239C950.341 791.045 945.946 795.202 940.948 798.534C937.99 800.506 934.841 802.176 931.549 803.517L929.187 804.479C925.07 806.157 920.817 807.48 916.475 808.435L898 812.5C890.022 813.83 881.925 814.249 873.841 814.017C873.453 814.006 873.164 814 873 814C872.751 814 872.427 814.072 872.057 814.192C868.89 815.226 866.797 818.141 865.484 821.203C864.832 822.725 863.952 824.14 862.874 825.397L861.112 827.453C859.377 829.477 857.409 831.291 855.251 832.856L848.092 838.046C841.716 842.668 834.858 846.586 827.638 849.73L807.5 858.5C797.5 861.5 777.1 867.5 775.5 867.5C775.05 867.5 772.798 867.632 769.525 867.84C748.199 869.195 726.804 869.164 705.5 867.5L665.5 860.5L606.5 845L598.118 843.004C575.749 837.678 552.955 834.331 530 833H506.5L472.5 835L430.5 841.5L359 854L301.5 863.5L241.5 870.5L198.5 873H151.5L122.5 871.5C104.204 869.837 86.1836 866.141 68.3358 861.786C67.5858 861.603 67.1146 861.5 67 861.5C66.5004 861.5 61.0352 859.42 55.3775 857.209C49.1329 854.768 43.1881 851.625 37.6094 847.906L36.1105 846.907C30.7226 843.315 25.7806 839.096 21.3884 834.337C17.8046 830.455 14.6056 826.234 11.8364 821.734L8 815.5L6.4543 812.268C3.83289 806.787 2.04727 800.944 1.15688 794.934C0.719552 791.982 0.5 789.002 0.5 786.018V780.294C0.5 771.794 1.49451 763.323 3.46324 755.054C4.81888 749.361 6.63103 743.786 8.88212 738.383L13 728.5L19.5 715L28 700L30.8689 696.175C35.9348 689.42 41.8583 683.354 48.4902 678.129C52.8222 674.716 57.4366 671.677 62.2835 669.046L64.5598 667.81C69.8408 664.944 75.3881 662.597 81.1234 660.805C86.0326 659.271 91.061 658.148 96.1566 657.449L103.441 656.449C110.466 655.485 117.564 655.162 124.647 655.484L126.598 655.573C132.851 655.857 139.062 656.747 145.144 658.23L152.789 660.095C155.254 660.696 157.638 661.592 159.889 662.762L165.555 665.708C167.794 666.873 169.608 668.716 170.737 670.973L171.525 672.55C171.837 673.175 172 673.864 172 674.562C172 676.592 170.642 678.37 168.684 678.904L167.551 679.213C166.856 679.403 166.133 679.467 165.415 679.401L150 678H133L121.473 678.843C115.51 679.28 109.614 680.382 103.896 682.129C97.6553 684.036 91.6783 686.712 86.0539 690.021C82.4053 692.167 79.2211 694 79 694C78.8749 694 77.996 694.653 76.7248 695.651C69.8272 701.071 63.8164 707.522 58.5 714.5C52.2064 722.119 47.1133 730.802 43.5 740L42.0044 743.988C40.0074 749.314 38.5943 754.84 37.7899 760.47L37.3962 763.227C37.1324 765.073 37 766.936 37 768.801V771.184C37 775.99 38.1648 780.724 40.3945 784.98C41.7901 787.645 43.5818 790.082 45.7085 792.209L46.6504 793.15C49.2041 795.704 52.1047 797.885 55.2668 799.63L59.8548 802.161C63.2797 804.051 66.8464 805.671 70.5226 807.008L73.5831 808.121C78.8543 810.038 84.2561 811.574 89.747 812.718L105.5 816L146.5 819H186.5L241.5 816L305 809L417.5 792L451 787C476.277 783.009 501.874 781.402 527.452 782.202L537 782.5L549.5 783.5L565.5 785.5L629 799.5L651.5 804L674 808.5L687.5 811L698.775 812.025C702.174 812.334 705.584 811.576 708.532 809.856C709.508 809.287 710.54 808.82 711.612 808.463L715.582 807.139C717.855 806.382 720.196 805.844 722.572 805.534L725.324 805.175C728.736 804.73 732.204 805.011 735.5 806L744.5 808.5L753.5 811L764.5 812.5L790.997 814.156C813.634 815.571 834.842 803.023 844.5 782.5L845.977 779.969C847.316 777.673 849.037 775.623 851.066 773.906C853.334 771.986 855.949 770.517 858.768 769.577L860.337 769.054C862.44 768.353 864.61 767.873 866.812 767.621L881 766L893 764.5L902.275 762.439C905.068 761.818 907.721 760.686 910.101 759.099C914.562 756.125 917.853 751.697 919.414 746.568L919.678 745.699C920.225 743.905 920.573 742.057 920.716 740.187L921.5 730V724.715C921.5 719.923 920.912 715.149 919.75 710.5C918.588 705.851 916.86 701.362 914.605 697.133L910 688.5L899 664.5L897.412 659.913C895.484 654.343 892.641 649.134 889 644.5L884 639.5C881.019 636.85 878.482 633.741 876.483 630.289L874 626L872.087 621.75C870.368 617.928 869.069 613.93 868.214 609.828C867.407 605.953 867 602.005 867 598.047V584L867.74 575.864C867.911 573.975 868.476 572.144 869.396 570.486L869.806 569.749C870.266 568.922 870.859 568.177 871.562 567.544C873.975 565.373 874.951 562.023 874.082 558.895L873 555L870.5 545.5L869.949 542.192C869.652 540.415 869.708 538.597 870.114 536.841L870.198 536.476C870.722 534.204 871.874 532.126 873.522 530.478L874.779 529.221C875.895 528.105 876.613 526.652 876.822 525.087L877.328 521.294C877.431 520.52 877.031 519.766 876.333 519.416C875.81 519.155 875.443 518.659 875.347 518.082L874.702 514.209C874.568 513.41 874.581 512.593 874.74 511.798L874.905 510.977C874.968 510.662 875.092 510.362 875.27 510.095L875.499 509.751C875.812 509.282 876.339 509 876.903 509C878.124 509 878.941 507.743 878.445 506.627L877.5 504.5L875.317 500.133C874.774 499.048 874.351 497.906 874.057 496.728C873.687 495.25 873.523 493.727 873.568 492.204L874 477.5V479.5V484L874.122 485.59C874.372 488.839 875.176 492.022 876.5 495L878.5 499M878.5 488.5C878.5 490.5 878.5 494.6 878.5 495M878.5 488.5V495M878.5 495C878.5 495.4 878.5 497.833 878.5 499M878.5 495V499" stroke="black"/>
<path d="M897.031 519C895.605 519 894.652 520.467 895.231 521.769L895.802 523.054C895.933 523.349 896.014 523.664 896.04 523.986L896.276 526.817C896.423 528.581 896.158 530.356 895.5 532L896.283 530.591C897.418 528.547 898.169 526.314 898.5 524L898.986 520.599C898.995 520.533 899 520.467 899 520.4C899 519.627 898.373 519 897.6 519H897.031Z" fill="white" stroke="white"/>
<path d="M880.031 519C878.605 519 877.652 520.467 878.231 521.769L878.802 523.054C878.933 523.349 879.014 523.664 879.04 523.986L879.276 526.817C879.423 528.581 879.158 530.356 878.5 532L879.283 530.591C880.418 528.547 881.169 526.314 881.5 524L881.986 520.599C881.995 520.533 882 520.467 882 520.4C882 519.627 881.373 519 880.6 519H880.031Z" fill="white" stroke="white"/>
<path d="M920.3 536.367C919.769 537.782 919.04 539.114 918.133 540.322L916.524 542.468C916.508 542.489 916.489 542.508 916.466 542.522C916.237 542.675 916.411 543.03 916.672 542.943L917.926 542.525C917.975 542.508 918.02 542.483 918.06 542.45L918.851 541.791C920.21 540.658 920.986 538.972 920.963 537.203L920.929 534.689L920.3 536.367Z" fill="white"/>
<path d="M921 534.5L920.929 534.689M920.929 534.689L920.3 536.367C919.769 537.782 919.04 539.114 918.133 540.322L916.524 542.468C916.508 542.489 916.489 542.508 916.466 542.522C916.237 542.675 916.411 543.03 916.672 542.943L917.926 542.525C917.975 542.508 918.02 542.483 918.06 542.45L918.851 541.791C920.21 540.658 920.986 538.972 920.963 537.203L920.929 534.689Z" stroke="white"/>
</svg>
