<svg width="1472" height="245" viewBox="0 0 1472 245" fill="none" xmlns="http://www.w3.org/2000/svg">
<rect x="70.1675" y="34.6482" width="49" height="297" rx="24.5" transform="rotate(-45 70.1675 34.6482)" fill="black"/>
<rect x="178.165" y="34.6484" width="49" height="297" rx="24.5" transform="rotate(-45 178.165 34.6484)" fill="black"/>
<rect x="286.165" y="34.6489" width="49" height="297" rx="24.5" transform="rotate(-45 286.165 34.6489)" fill="black"/>
<rect x="514.166" y="34.6489" width="49" height="297" rx="24.5" transform="rotate(-45 514.166 34.6489)" fill="black"/>
<rect x="617.164" y="34.6484" width="49" height="297" rx="24.5" transform="rotate(-45 617.164 34.6484)" fill="black"/>
<rect x="895.742" y="97.7256" width="49" height="120" rx="24.5" transform="rotate(-45 895.742 97.7256)" fill="black"/>
<rect x="1073.16" y="34.6484" width="49" height="297" rx="24.5" transform="rotate(-45 1073.16 34.6484)" fill="black"/>
<rect x="1238.75" y="97.7266" width="49" height="120" rx="24.5" transform="rotate(-45 1238.75 97.7266)" fill="black"/>
<rect y="108.979" width="1472" height="27" rx="13.5" fill="black"/>
</svg>
